<svg width="1200" height="300" viewBox="0 0 1200 300" fill="none" xmlns="http://www.w3.org/2000/svg">
  <defs>
    <linearGradient id="bg" x1="0" y1="0" x2="1" y2="1">
      <stop offset="0%" stop-color="#ffd1dc"/>
      <stop offset="100%" stop-color="#f7b2c4"/>
    </linearGradient>
    <filter id="soft" x="-10%" y="-10%" width="120%" height="120%" color-interpolation-filters="sRGB">
      <feGaussianBlur stdDeviation="8"/>
    </filter>
    <filter id="text-glow" x="-20%" y="-20%" width="140%" height="140%" color-interpolation-filters="sRGB">
      <feGaussianBlur in="SourceGraphic" stdDeviation="2" result="blur"/>
      <feColorMatrix in="blur" type="matrix" values="0 0 0 0 1  0 0 0 0 0.6  0 0 0 0 0.7  0 0 0 0.8 0" result="glow"/>
      <feMerge>
        <feMergeNode in="glow"/>
        <feMergeNode in="SourceGraphic"/>
      </feMerge>
    </filter>
  </defs>

  <rect width="1200" height="300" rx="24" fill="url(#bg)"/>

  <path d="M0 235 C 200 205, 400 265, 600 235 C 800 205, 1000 265, 1200 235 L 1200 300 L 0 300 Z" fill="#ffffff" opacity="0.45"/>
  <path d="M0 255 C 220 235, 420 285, 620 255 C 820 225, 1020 285, 1200 255 L 1200 300 L 0 300 Z" fill="#ffffff" opacity="0.35"/>

  <g opacity="0.25" filter="url(#soft)">
    <circle cx="105" cy="90" r="55" fill="#ffffff"/>
    <circle cx="1095" cy="70" r="60" fill="#ffffff"/>
  </g>

  <g fill="#ff6b8a">
    <path d="M140 190 C140 170, 170 170, 170 190 C170 210, 140 225, 140 235 C140 225, 110 210, 110 190 C110 170, 140 170, 140 190 Z"/>
    <path d="M1080 190 C1080 170, 1110 170, 1110 190 C1110 210, 1080 225, 1080 235 C1080 225, 1050 210, 1050 190 C1050 170, 1080 170, 1080 190 Z"/>
  </g>

  <g font-family="'Comic Sans MS', 'Comic Sans', 'Marker Felt', 'Trebuchet MS', sans-serif" text-anchor="middle" filter="url(#text-glow)">
    <text x="600" y="130" font-size="44" font-weight="700" fill="#5a2a3a">みなさん、こんにちわ! キイン　です</text>
    <text x="600" y="180" font-size="26" font-weight="600" fill="#6b3144">BCSE 私は学生 @ VJU</text>
  </g>

  <g fill="#ff8fa8">
    <circle cx="600" cy="78" r="6"/>
    <circle cx="620" cy="78" r="6"/>
    <circle cx="610" cy="96" r="6"/>
  </g>
</svg>
